<?xml version="1.0" encoding="utf-8"?>
<!-- Generator: Adobe Illustrator 27.6.1, SVG Export Plug-In . SVG Version: 6.00 Build 0)  -->
<svg version="1.1" id="Calque_1" xmlns="http://www.w3.org/2000/svg" xmlns:xlink="http://www.w3.org/1999/xlink" x="0px" y="0px"
	 viewBox="0 0 288.5 76.3" style="enable-background:new 0 0 288.5 76.3;" xml:space="preserve">
<style type="text/css">
	.st0{fill:url(#SVGID_1_);}
	.st1{fill:url(#SVGID_00000052082574596286976150000001639839986463930292_);}
	.st2{fill:url(#SVGID_00000072241767003930201390000016130288411860317336_);}
</style>
<g>
	<path d="M206.2,73.6c-1.5,1.2-3.6,1.9-6,1.9c-2.3,0-4.4-0.7-5.8-1.9c-1.3-1.1-2-2.5-2-4.2s0.7-3.1,2-4.2c1.5-1.2,3.5-1.9,5.8-1.9
		c3,0,5.3,1,6.7,2.7l-2.9,1c-0.9-1-2.3-1.5-3.8-1.5c-3,0-5.1,1.7-5.1,3.9c0,1.2,0.6,2.2,1.7,2.9c0.9,0.6,2.1,0.9,3.4,0.9
		c2.3,0,4.2-1,5-2.4h-5.6v-2.2h8.7v0.7C208.3,71,207.6,72.5,206.2,73.6z"/>
	<path d="M224.6,75.2l-2.8-4.1h-5.3v4.1h-2.8V63.6h9.4c2.6,0,4.3,1.5,4.3,3.8c0,1.8-0.9,3-2.6,3.5l2.9,4.3
		C227.7,75.2,224.6,75.2,224.6,75.2z M224.7,67.3c0-0.9-0.7-1.5-1.9-1.5h-6.3v3h6.3C224,68.9,224.7,68.3,224.7,67.3z"/>
	<path d="M246,73.6c-1.4,1.2-3.5,1.9-5.9,1.9c-2.3,0-4.4-0.7-5.8-1.9c-1.3-1.1-2-2.5-2-4.2s0.7-3.1,2-4.2c1.5-1.2,3.5-1.9,5.8-1.9
		s4.4,0.7,5.8,1.9c1.3,1.1,2,2.5,2,4.2C248,71.1,247.3,72.5,246,73.6z M240.2,65.5c-3,0-4.9,1.6-4.9,3.9s1.9,3.9,4.9,3.9
		c3.1,0,5-1.6,5-3.9C245.1,67.1,243.2,65.5,240.2,65.5z"/>
	<path d="M260.5,75.5c-4.3,0-7-1.8-7-4.2v-7.6h2.8V71c0,1.4,1.5,2.4,4.2,2.4s4.2-1,4.2-2.4v-7.3h2.8v7.6
		C267.4,73.7,264.8,75.5,260.5,75.5z"/>
	<path d="M287.5,67.4c0,2.4-1.5,3.7-4.5,3.7h-6.5v4.1h-2.8V63.6h9.4C285.8,63.6,287.5,65.2,287.5,67.4z M284.7,67.4
		c0-1-0.7-1.5-1.9-1.5h-6.3v3h6.3C284,68.9,284.7,68.3,284.7,67.4z"/>
</g>
<g>
	<path d="M98.1,34.2H72.9c-1.6,0-2.4,0.8-2.4,2.2v1.1c0,1.5,0.8,2.3,2.4,2.3h19c4.7,0,7.1,2,7.1,6.1v4.4c0,4.2-2.4,6.3-7.1,6.3h-28
		v-5.9h25.9c1.4,0,2.2-0.8,2.2-2.4v-1.4c0-1.5-0.8-2.2-2.2-2.2H70.6c-4.7,0-7.1-2-7.1-6.1v-3.9c0-4.1,2.4-6.2,7.1-6.2h27.5V34.2z"/>
	<path d="M110.8,56.6h-7v-28h7V56.6z"/>
	<path d="M154.1,56.6h-7v-28h7V56.6z"/>
	<path d="M191.9,34.2h-21.1c-3.5,0-4.4,1.6-4.4,4.4V47c0,2.4,1.5,3.7,4.4,3.7h21.3v5.9h-21.3c-7.6,0-11.4-3.1-11.4-9.3v-9.5
		c0-6.2,3.8-9.3,11.4-9.3h21.1V34.2z"/>
	<path d="M233.7,47.4c0,6.1-3.8,9.2-11.4,9.2h-14.5c-7.6,0-11.4-3.1-11.4-9.3v-9.5c0-6.2,3.8-9.3,11.4-9.3h14.5
		c7.6,0,11.4,3.1,11.4,9.3V47.4z M208.4,34.2c-3.9,0-5,1.2-5,4.2v8.1c0,3.2,1.4,4.2,5,4.2h13.3c3.9,0,5-1.2,5-4.1v-8.1
		c0-2.8-1.2-4.2-4.4-4.2L208.4,34.2L208.4,34.2z"/>
	<path d="M287.7,56.6h-7V37.8c0-2.4-1.5-3.6-4.4-3.6h-9.6v22.4h-7.1V34.2h-14.1v22.4h-7v-28h37.8c7.6,0,11.4,3.1,11.4,9.3
		L287.7,56.6L287.7,56.6z"/>
	<path d="M142.4,56.6h-14.9c-7.6,0-11.4-3.1-11.4-9.2V28.6h7v17.8c0,2.4,1.5,3.5,4.4,3.5h14.9V56.6z"/>
</g>
<g>
	
		<radialGradient id="SVGID_1_" cx="61.347" cy="50.2293" r="35.9966" gradientTransform="matrix(1 0 0 -1 0 77.2756)" gradientUnits="userSpaceOnUse">
		<stop  offset="0" style="stop-color:#E89771"/>
		<stop  offset="0.1182" style="stop-color:#EB6646"/>
		<stop  offset="0.7094" style="stop-color:#E40E25"/>
	</radialGradient>
	<path class="st0" d="M27,44.8c0.6-0.1,1.1-0.2,1.7-0.2c7.4,0,17.2,0,24.6,0c1.4,0,2.9-0.2,4.2-0.8c1.3-0.5,2.2-1.7,2.7-2.9
		c0.6-1.5,0.5-5.2,0.5-6.8c0-1.4-0.3-2.9-1.4-3.9c-0.6-0.6-1.4-1-2.3-1.2c-1.2-0.3-2.4-0.5-3.6-0.5c-3.7,0-34.5,0-48.2,0L1.6,34
		c11.9,0,42,0,49.5,0c0.6,0,1.1,0,1.6,0.3c0.4,0.2,1.1,0.7,0.9,2.4c-0.1,1.3,0,3-1.7,3c-1.5,0-3.3,0-3.6,0c-7.4,0-14.6,0-22,0
		c-1.6,0-3.2,0.3-4.8,1.1c-1.2,0.6-2,1.3-2.6,2.4c-0.5,0.8-3.3,6.8-3.5,8.2c-0.3,1.6,0.3,3.1,1.8,4.1c0.6,0.4,1.2,0.7,2,0.9
		c1.5,0.4,3.2,0.3,4.8,0.3c10.5,0,36.3,0,36.3,0v-6c0,0-24,0-33.6,0c-0.5,0-1,0-1.5-0.1c-1-0.2-1.3-0.8-1.3-1.6s1.1-2.8,1.4-3.2
		C25.6,45.2,26.3,45,27,44.8z"/>
	
		<radialGradient id="SVGID_00000075141654499033696520000014383011039196141185_" cx="61.347" cy="50.2293" r="35.9966" gradientTransform="matrix(1 0 0 -1 0 77.2756)" gradientUnits="userSpaceOnUse">
		<stop  offset="0" style="stop-color:#E89771"/>
		<stop  offset="0.1182" style="stop-color:#EB6646"/>
		<stop  offset="0.7094" style="stop-color:#E40E25"/>
	</radialGradient>
	<path style="fill:url(#SVGID_00000075141654499033696520000014383011039196141185_);" d="M95.2,19.8c-13.5,0-15.7,0-21.8,0
		c-0.5,0-1,0-1.5-0.3c-0.5-0.2-0.8-0.6-0.9-1c-0.3-0.8-0.3-1.1-0.3-2c0.1-0.9,0.5-1.3,1.6-1.5c0.2,0,0.5,0,0.7,0c6.5,0,7.6,0,14.1,0
		c1.4,0,2.7-0.3,3.7-1c0.8-0.6,1.2-1.3,1.3-2.3c0.1-0.8,0-1.5-0.2-2.3c-0.3-1.1-2.1-4.1-2.4-4.6c-0.4-0.7-1-1.4-1.9-1.9
		c-0.6-0.4-1.3-0.6-2-0.8c-1.3-0.3-2.5-0.3-3.7-0.3c-7.8,0-18,0-18,0V6c0,0,10.2,0,17.8,0c0.4,0,0.8,0,1.2,0.1
		c0.8,0.2,1.5,0.5,1.9,1.2c0.4,0.8,1,1.9,1,2.3c0,0.5-0.4,0.9-0.9,1.1c-0.4,0.1-0.9,0.2-1.4,0.2c-6.2,0-7.7,0-13.9,0
		c-1.2,0-2.8,0.2-3.8,0.7c-1.1,0.5-1.5,1.2-1.8,2.1c-0.3,0.8-0.4,1.9-0.4,2.7c0,1.5,0,2.5,0.2,4c0.1,1.3,0.6,2.5,1.7,3.5
		c0.7,0.6,1.5,0.9,2.4,1.2c1.2,0.3,2.4,0.4,3.6,0.4c3.5,0,11.6,0,26.2,0L95.2,19.8z"/>
	
		<radialGradient id="SVGID_00000066474000317021204960000014701951501846448044_" cx="61.347" cy="50.2293" r="35.9981" gradientTransform="matrix(1 0 0 -1 0 77.2756)" gradientUnits="userSpaceOnUse">
		<stop  offset="0" style="stop-color:#E89771"/>
		<stop  offset="0.1182" style="stop-color:#EB6646"/>
		<stop  offset="0.7094" style="stop-color:#E40E25"/>
	</radialGradient>
	<path style="fill:url(#SVGID_00000066474000317021204960000014701951501846448044_);" d="M52.8,25.1c1.2,0,2.4-0.1,3.6-0.4
		c0.9-0.2,1.7-0.6,2.4-1.2c1.2-1,1.6-2.2,1.7-3.5c0.1-1.5,0.1-2.5,0.2-4c0-0.8-0.1-1.9-0.4-2.7c-0.3-0.9-0.7-1.6-1.8-2.1
		c-1.1-0.5-2.6-0.7-3.8-0.7c-6.2,0-7.8,0-13.9,0c-0.5,0-0.9-0.1-1.4-0.2c-0.6-0.1-0.9-0.6-0.9-1.1c0-0.4,0.6-1.5,1-2.3
		c0.4-0.7,1-1,1.9-1.2c0.4-0.1,0.8-0.1,1.2-0.1c7.6,0,17.8,0,17.8,0v-4c0,0-10.2,0-18,0c-1.2,0-2.4,0-3.7,0.3
		c-0.7,0.2-1.4,0.4-2,0.8c-0.9,0.5-1.4,1.2-1.9,1.9c-0.3,0.5-2.1,3.6-2.4,4.6c-0.2,0.8-0.3,1.6-0.2,2.3c0.1,1,0.5,1.8,1.3,2.3
		c1,0.7,2.3,1,3.7,1c6.5,0,7.6,0,14.1,0c0.2,0,0.5,0,0.7,0c1.2,0.2,1.6,0.6,1.6,1.5c0.1,0.8,0,1.1-0.3,2c-0.2,0.4-0.5,0.8-0.9,1
		c-0.5,0.2-1,0.3-1.5,0.3c-6.1,0-26.4,0-39.9,0l-3.6,5.3C22,25.1,49.3,25.1,52.8,25.1z"/>
</g>
</svg>
